<svg width="16" height="16" viewBox="0 0 16 16" fill="none" xmlns="http://www.w3.org/2000/svg">
<path d="M8.00017 1.33398C6.68162 1.33398 5.39269 1.72498 4.29636 2.45752C3.20004 3.19006 2.34555 4.23125 1.84097 5.44943C1.33638 6.6676 1.20436 8.00805 1.4616 9.30125C1.71883 10.5945 2.35377 11.7823 3.28612 12.7147C4.21847 13.647 5.40636 14.282 6.69956 14.5392C7.99277 14.7965 9.33322 14.6644 10.5514 14.1598C11.7696 13.6553 12.8108 12.8008 13.5433 11.7045C14.2758 10.6081 14.6668 9.31919 14.6668 8.00065C14.6668 7.12517 14.4944 6.25827 14.1594 5.44943C13.8243 4.64059 13.3333 3.90566 12.7142 3.28661C12.0952 2.66755 11.3602 2.17649 10.5514 1.84145C9.74255 1.50642 8.87565 1.33398 8.00017 1.33398ZM8.71273 11.4313H7.2964V6.44955H8.71273V11.4313ZM8.6053 5.71678C8.43511 5.84969 8.22537 5.92188 8.00943 5.92188C7.7935 5.92188 7.58376 5.84969 7.41357 5.71678C7.33301 5.64885 7.26911 5.56334 7.22679 5.46683C7.18446 5.37033 7.16484 5.2654 7.16943 5.16012C7.16485 5.0548 7.18447 4.94983 7.22679 4.85327C7.26911 4.75672 7.33301 4.67115 7.41357 4.60315C7.58376 4.47026 7.7935 4.39808 8.00943 4.39808C8.22537 4.39808 8.4351 4.47026 8.6053 4.60315C8.68588 4.67114 8.74981 4.7567 8.79216 4.85325C8.83451 4.9498 8.85416 5.05478 8.8496 5.16012C8.85417 5.26541 8.83452 5.37035 8.79217 5.46685C8.74982 5.56336 8.68589 5.64886 8.6053 5.71678Z" fill="black" fill-opacity="0.9"/>
</svg>
