<svg width="128" height="19" viewBox="0 0 128 19" fill="none" xmlns="http://www.w3.org/2000/svg">
<path d="M13.5446 18.7747C13.5941 18.8603 13.6856 18.913 13.7846 18.913H15.9404C16.1537 18.913 16.2871 18.6825 16.1804 18.4981L8.34956 4.96146C8.2429 4.77708 7.97625 4.77708 7.86959 4.96146C5.26471 9.46435 2.65363 13.9875 0.0375122 18.5118C-0.0691004 18.6962 0.0642288 18.9266 0.277526 18.9266H10.3749C10.5882 18.9266 10.7215 18.6962 10.6149 18.5118L9.58202 16.7263C9.53252 16.6408 9.44104 16.5881 9.34204 16.5881H4.17758C4.07092 16.5881 4.00426 16.4728 4.05759 16.3806L7.98865 9.58527C8.04198 9.49308 8.1753 9.49308 8.22863 9.58527L13.5446 18.7747Z" fill="#89949F"/>
<path d="M9.58467 1.99671C9.53517 2.08227 9.53517 2.1877 9.58467 2.27327L19.1306 18.7747C19.1801 18.8603 19.2716 18.913 19.3706 18.913H21.5207C21.7341 18.913 21.8674 18.6825 21.7607 18.4981L11.1397 0.138283C11.0331 -0.0460946 10.7664 -0.0460942 10.6597 0.138283L9.58467 1.99671Z" fill="#89949F"/>
<path d="M34.4985 10.3886L32.6419 4.73025L30.8029 10.3886H34.4985ZM27.4609 15.0391C27.3666 15.0391 27.29 15.0215 27.231 14.9861C27.1839 14.9389 27.1603 14.88 27.1603 14.8093C27.1603 14.7621 27.1957 14.6383 27.2664 14.4379L31.3864 3.1742C31.4336 3.03274 31.4984 2.93254 31.5809 2.87359C31.6634 2.81465 31.7754 2.78518 31.9169 2.78518H33.473C33.6144 2.78518 33.7264 2.81465 33.8089 2.87359C33.8914 2.93254 33.9563 3.03274 34.0034 3.1742L38.1058 14.4379C38.1765 14.6383 38.2119 14.7621 38.2119 14.8093C38.2119 14.88 38.1824 14.9389 38.1235 14.9861C38.0763 15.0215 38.0056 15.0391 37.9113 15.0391H36.3729C36.2432 15.0391 36.143 15.0156 36.0723 14.9684C36.0134 14.9095 35.9603 14.8152 35.9131 14.6855L34.9937 11.9624H30.2901L29.3883 14.6855C29.3411 14.8269 29.2822 14.9213 29.2115 14.9684C29.1525 15.0156 29.0582 15.0391 28.9286 15.0391H27.4609Z" fill="#89949F"/>
<path d="M41.0659 15.0391C40.783 15.0391 40.6062 14.9095 40.5355 14.6501L37.2819 3.3687C37.2347 3.20367 37.2111 3.09168 37.2111 3.03274C37.2111 2.8677 37.3113 2.78518 37.5117 2.78518H39.1209C39.3684 2.78518 39.5217 2.90307 39.5806 3.13883L41.8617 12.7051L43.9659 3.51016C44.013 3.25082 44.184 3.12115 44.4787 3.12115H45.9286C46.2116 3.12115 46.3825 3.25082 46.4414 3.51016L48.5633 12.6874L50.8444 3.13883C50.9033 2.90307 51.0566 2.78518 51.3041 2.78518H52.8248C53.0252 2.78518 53.1254 2.8677 53.1254 3.03274C53.1254 3.09168 53.1018 3.20367 53.0547 3.3687L49.8188 14.6501C49.7481 14.9095 49.5712 15.0391 49.2883 15.0391H47.7853C47.5024 15.0391 47.3256 14.9095 47.2548 14.6501L45.1683 5.82657L43.0994 14.6501C43.0287 14.9095 42.8519 15.0391 42.569 15.0391H41.0659Z" fill="#89949F"/>
<path d="M57.6972 15.3397C57.1785 15.3397 56.6421 15.2926 56.0881 15.1983C55.5458 15.104 55.0625 14.9802 54.6381 14.8269C54.4495 14.768 54.3257 14.6973 54.2668 14.6148C54.2078 14.5322 54.1784 14.4026 54.1784 14.2257V13.3593C54.1784 13.2532 54.2019 13.1707 54.2491 13.1117C54.2962 13.041 54.3611 13.0057 54.4436 13.0057C54.5615 13.0057 54.7619 13.0469 55.0448 13.1294C55.422 13.2355 55.8582 13.3298 56.3533 13.4124C56.8484 13.4831 57.2964 13.5184 57.6972 13.5184C58.5342 13.5184 59.1766 13.3711 59.6246 13.0764C60.0725 12.7699 60.2965 12.3337 60.2965 11.7679C60.2965 11.3671 60.1609 11.037 59.8898 10.7777C59.6187 10.5183 59.1413 10.259 58.4575 9.99963L56.8838 9.39843C55.8936 9.0212 55.1745 8.57325 54.7265 8.05456C54.2786 7.52409 54.0546 6.86394 54.0546 6.07412C54.0546 4.97781 54.4377 4.11137 55.2039 3.4748C55.982 2.82644 57.0252 2.50226 58.3338 2.50226C59.2179 2.50226 60.1668 2.65551 61.1806 2.96201C61.3693 3.02095 61.493 3.09168 61.552 3.1742C61.6109 3.25671 61.6404 3.38639 61.6404 3.56321V4.41197C61.6404 4.51807 61.6168 4.60648 61.5697 4.67721C61.5225 4.73615 61.4577 4.76562 61.3751 4.76562C61.2691 4.76562 61.0687 4.72436 60.7739 4.64184C59.9605 4.42965 59.2061 4.32356 58.5106 4.32356C56.9427 4.32356 56.1588 4.84814 56.1588 5.8973C56.1588 6.2981 56.3003 6.62817 56.5832 6.88752C56.8661 7.14686 57.3671 7.4062 58.0862 7.66555L59.5892 8.2137C60.5794 8.57914 61.2926 9.0212 61.7288 9.53989C62.1768 10.0586 62.4007 10.7187 62.4007 11.5203C62.4007 12.7109 61.9822 13.6481 61.1453 14.3318C60.3083 15.0038 59.1589 15.3397 57.6972 15.3397Z" fill="#89949F"/>
<path d="M75.1007 10.4215L73.244 4.76306L71.405 10.4215H75.1007ZM68.063 15.0719C67.9687 15.0719 67.8921 15.0543 67.8332 15.0189C67.786 14.9717 67.7624 14.9128 67.7624 14.8421C67.7624 14.7949 67.7978 14.6711 67.8685 14.4707L71.9886 3.20701C72.0357 3.06555 72.1005 2.96535 72.1831 2.9064C72.2656 2.84746 72.3776 2.81799 72.519 2.81799H74.0751C74.2166 2.81799 74.3285 2.84746 74.4111 2.9064C74.4936 2.96535 74.5584 3.06555 74.6056 3.20701L78.7079 14.4707C78.7786 14.6711 78.814 14.7949 78.814 14.8421C78.814 14.9128 78.7845 14.9717 78.7256 15.0189C78.6784 15.0543 78.6077 15.0719 78.5134 15.0719H76.975C76.8454 15.0719 76.7452 15.0484 76.6744 15.0012C76.6155 14.9423 76.5624 14.848 76.5153 14.7183L75.5958 11.9952H70.8922L69.9904 14.7183C69.9433 14.8598 69.8843 14.9541 69.8136 15.0012C69.7547 15.0484 69.6604 15.0719 69.5307 15.0719H68.063Z" fill="#89949F"/>
<path d="M80.3589 15.0719C80.0995 15.0719 79.9699 14.9423 79.9699 14.6829V6.46058C79.9699 6.20124 80.0995 6.07157 80.3589 6.07157H81.2961C81.4493 6.07157 81.5613 6.10104 81.632 6.15998C81.7028 6.20713 81.7499 6.30144 81.7735 6.4429L81.8973 6.97337C82.4867 6.57257 83.0407 6.27786 83.5594 6.08925C84.0899 5.90064 84.6204 5.80633 85.1508 5.80633C86.2472 5.80633 87.0016 6.21303 87.4142 7.02642C88.593 6.21303 89.7247 5.80633 90.8093 5.80633C91.6462 5.80633 92.2946 6.0362 92.7543 6.49595C93.2141 6.9439 93.444 7.59816 93.444 8.4587V14.6829C93.444 14.9423 93.3143 15.0719 93.0549 15.0719H91.7464C91.4871 15.0719 91.3574 14.9423 91.3574 14.6829V8.97149C91.3574 8.42923 91.2513 8.04022 91.0391 7.80445C90.8269 7.56868 90.4792 7.4508 89.9959 7.4508C89.6304 7.4508 89.2414 7.51564 88.8288 7.64531C88.4162 7.76319 88.0567 7.91644 87.7502 8.10505V14.6829C87.7502 14.9423 87.6205 15.0719 87.3612 15.0719H86.0527C85.7933 15.0719 85.6636 14.9423 85.6636 14.6829V8.97149C85.6636 8.42923 85.5575 8.04022 85.3454 7.80445C85.1332 7.56868 84.7854 7.4508 84.3021 7.4508C83.9602 7.4508 83.5889 7.50974 83.1881 7.62763C82.7991 7.73372 82.4218 7.89286 82.0564 8.10505V14.6829C82.0564 14.9423 81.9267 15.0719 81.6674 15.0719H80.3589Z" fill="#89949F"/>
<path d="M95.6951 18.7145C95.4358 18.7145 95.3061 18.5849 95.3061 18.3255V6.46058C95.3061 6.20124 95.4358 6.07157 95.6951 6.07157H96.6676C96.927 6.07157 97.0802 6.18945 97.1274 6.42522L97.2335 6.97337C97.6461 6.59615 98.0999 6.30733 98.595 6.10693C99.1019 5.90653 99.6265 5.80633 100.169 5.80633C101.289 5.80633 102.179 6.22482 102.839 7.06179C103.511 7.89876 103.847 9.02454 103.847 10.4391C103.847 11.4176 103.682 12.2722 103.352 13.0031C103.033 13.734 102.585 14.2939 102.008 14.6829C101.43 15.0719 100.77 15.2665 100.027 15.2665C99.5322 15.2665 99.0548 15.1839 98.595 15.0189C98.1353 14.8421 97.7345 14.6004 97.3926 14.2939V18.3255C97.3926 18.5849 97.263 18.7145 97.0036 18.7145H95.6951ZM99.4969 13.622C100.251 13.622 100.811 13.3685 101.177 12.8616C101.542 12.343 101.725 11.559 101.725 10.5099C101.725 9.4725 101.542 8.70626 101.177 8.21115C100.823 7.70425 100.269 7.4508 99.5145 7.4508C98.7483 7.4508 98.041 7.67478 97.3926 8.12274V12.9324C98.0528 13.3921 98.7542 13.622 99.4969 13.622Z" fill="#89949F"/>
<path d="M107.5 15.178C106.804 15.178 106.274 14.9835 105.908 14.5945C105.555 14.1937 105.378 13.6161 105.378 12.8616V2.37593C105.378 2.11659 105.507 1.98692 105.767 1.98692H107.075C107.335 1.98692 107.464 2.11659 107.464 2.37593V12.7025C107.464 12.9972 107.517 13.2094 107.623 13.3391C107.741 13.4687 107.93 13.5336 108.189 13.5336C108.248 13.5336 108.313 13.5277 108.384 13.5159C108.454 13.5041 108.513 13.4982 108.561 13.4982C108.785 13.4982 108.897 13.622 108.897 13.8695V14.5945C108.897 14.8421 108.773 14.9953 108.525 15.0543C108.172 15.1368 107.83 15.178 107.5 15.178Z" fill="#89949F"/>
<path d="M110.661 15.0719C110.401 15.0719 110.272 14.9423 110.272 14.6829V6.46058C110.272 6.20124 110.401 6.07157 110.661 6.07157H111.969C112.229 6.07157 112.358 6.20124 112.358 6.46058V14.6829C112.358 14.9423 112.229 15.0719 111.969 15.0719H110.661ZM111.315 4.58624C110.926 4.58624 110.62 4.48014 110.396 4.26796C110.172 4.05577 110.06 3.76106 110.06 3.38383C110.06 3.00661 110.172 2.7119 110.396 2.49971C110.62 2.28752 110.926 2.18142 111.315 2.18142C111.704 2.18142 112.011 2.28752 112.235 2.49971C112.459 2.7119 112.571 3.00661 112.571 3.38383C112.571 3.76106 112.459 4.05577 112.235 4.26796C112.011 4.48014 111.704 4.58624 111.315 4.58624Z" fill="#89949F"/>
<path d="M115.215 14.6829C115.215 14.9423 115.344 15.072 115.604 15.072H116.912C117.171 15.072 117.301 14.9423 117.301 14.6829V7.663H119.954L122.66 15.178L122.43 15.7969C122.194 16.4335 121.952 16.8402 121.705 17.017C121.457 17.2056 121.08 17.2999 120.573 17.2999C120.384 17.2999 120.249 17.2941 120.166 17.2823C120.084 17.2705 120.013 17.2646 119.954 17.2646C119.766 17.2646 119.671 17.3825 119.671 17.6182V18.2194C119.671 18.3963 119.695 18.52 119.742 18.5908C119.789 18.6733 119.889 18.7381 120.043 18.7853C120.349 18.8796 120.72 18.9267 121.157 18.9267C121.876 18.9267 122.459 18.7381 122.907 18.3609C123.355 17.9837 123.744 17.3648 124.074 16.5042L127.929 6.60205C127.976 6.48416 128 6.38986 128 6.31913C128 6.15409 127.894 6.07157 127.681 6.07157H126.338C126.09 6.07157 125.937 6.18356 125.878 6.40754L123.65 13.1976L121.457 6.40754C121.398 6.18356 121.245 6.07157 120.997 6.07157H117.301V4.65697C117.301 4.20902 117.401 3.88484 117.602 3.68444C117.814 3.48404 118.156 3.38384 118.627 3.38384C118.91 3.38384 119.14 3.40741 119.317 3.45457C119.494 3.48993 119.641 3.50761 119.759 3.50761C119.959 3.50761 120.06 3.38384 120.06 3.13628V2.48203C120.06 2.3052 120.03 2.18143 119.971 2.1107C119.912 2.02818 119.794 1.96334 119.618 1.91619C119.17 1.79831 118.698 1.73937 118.203 1.73937C116.211 1.73937 115.215 2.80031 115.215 4.92221V6.12462L114.012 6.30144C113.883 6.31323 113.788 6.35449 113.729 6.42522C113.67 6.48416 113.641 6.59615 113.641 6.76119V7.2563C113.641 7.52743 113.765 7.663 114.012 7.663H115.215V14.6829Z" fill="#89949F"/>
</svg>
