<svg width="61" height="53" viewBox="0 0 61 53" fill="none" xmlns="http://www.w3.org/2000/svg">
<path d="M37.9032 52.5389C38.0417 52.7784 38.2977 52.9259 38.5747 52.9259H44.6075C45.2044 52.9259 45.5775 52.281 45.2791 51.765L23.3653 13.8841C23.0668 13.3681 22.3207 13.3681 22.0222 13.8841L18.8018 19.451C18.7895 19.4722 18.7895 19.4983 18.8018 19.5195L18.8056 19.5262C18.8303 19.5689 18.7995 19.6223 18.7501 19.6223C18.7271 19.6223 18.7059 19.6345 18.6945 19.6543L0.104974 51.8033C-0.19337 52.3193 0.179737 52.9641 0.776626 52.9641H29.033C29.6299 52.9641 30.003 52.3191 29.7046 51.8032L26.8142 46.8068C26.6757 46.5674 26.4197 46.4199 26.1427 46.4199H11.6905C11.392 46.4199 11.2055 46.0974 11.3547 45.8394L22.3553 26.8233C22.5046 26.5653 22.8777 26.5653 23.0269 26.8233L37.9032 52.5389Z" fill="#40AABF"/>
<path d="M26.8216 5.58756C26.6831 5.82702 26.6831 6.12204 26.8216 6.3615L53.5348 52.5389C53.6734 52.7784 53.9294 52.9259 54.2064 52.9259H60.2234C60.8203 52.9259 61.1934 52.281 60.895 51.765L31.1733 0.38697C30.8748 -0.128991 30.1286 -0.12899 29.8301 0.386971L26.8216 5.58756Z" fill="#40AABF"/>
</svg>
