<svg width="14" height="14" viewBox="0 0 14 14" fill="none" xmlns="http://www.w3.org/2000/svg">
<path d="M11.4037 6.41512C11.1383 5.81774 10.7524 5.28155 10.2703 4.84012L9.87246 4.47508C9.85895 4.46303 9.84269 4.45447 9.82511 4.45017C9.80752 4.44586 9.78915 4.44594 9.7716 4.4504C9.75405 4.45485 9.73787 4.46355 9.72446 4.47572C9.71106 4.48789 9.70085 4.50316 9.69473 4.5202L9.51699 5.03016C9.40625 5.35008 9.20254 5.67684 8.91406 5.99813C8.89492 6.01864 8.87305 6.02411 8.85801 6.02547C8.84297 6.02684 8.81973 6.02411 8.79922 6.00496C8.78008 5.98856 8.77051 5.96395 8.77187 5.93934C8.82246 5.11629 8.57637 4.18797 8.0377 3.17762C7.59199 2.33817 6.97266 1.68328 6.19883 1.22664L5.63418 0.894417C5.56035 0.850667 5.46602 0.908089 5.47012 0.994222L5.5002 1.65047C5.5207 2.09891 5.46875 2.49539 5.3457 2.82489C5.19531 3.22821 4.9793 3.60282 4.70312 3.93914C4.51093 4.17288 4.29309 4.3843 4.05371 4.56942C3.47718 5.01261 3.00838 5.5805 2.68242 6.23055C2.35727 6.88627 2.1879 7.60821 2.1875 8.34012C2.1875 8.98543 2.31465 9.61024 2.56621 10.1995C2.80911 10.7668 3.15965 11.2817 3.59844 11.7157C4.04141 12.1532 4.55547 12.4977 5.12832 12.737C5.72168 12.9858 6.35059 13.1116 7 13.1116C7.64941 13.1116 8.27832 12.9858 8.87168 12.7384C9.44312 12.5005 9.96276 12.1536 10.4016 11.7171C10.8445 11.2796 11.1918 10.7682 11.4338 10.2009C11.685 9.61322 11.8138 8.98057 11.8125 8.34149C11.8125 7.6743 11.6758 7.02625 11.4037 6.41512ZM9.74805 11.054C9.01387 11.7813 8.03906 12.1806 7 12.1806C5.96094 12.1806 4.98613 11.7813 4.25195 11.054C3.52051 10.328 3.11719 9.36551 3.11719 8.34149C3.11719 7.74676 3.25117 7.17664 3.51504 6.64618C3.77207 6.12801 4.15488 5.66454 4.61973 5.3077C4.91618 5.08101 5.18507 4.82038 5.4209 4.53114C5.7627 4.11414 6.03066 3.6493 6.2166 3.15028C6.29287 2.94443 6.34829 2.73145 6.38203 2.51453C6.71152 2.81805 6.9877 3.18446 7.21875 3.61375C7.67539 4.46961 7.88594 5.23114 7.84492 5.87918C7.83512 6.03181 7.86005 6.18467 7.91783 6.32628C7.97561 6.46789 8.06474 6.59456 8.17852 6.69676C8.27712 6.78583 8.39243 6.85442 8.51776 6.89854C8.64309 6.94266 8.77594 6.96145 8.90859 6.95379C9.17793 6.94012 9.42539 6.82118 9.60586 6.6202C9.78769 6.41649 9.94492 6.20868 10.0762 5.99676C10.2676 6.24149 10.4275 6.50809 10.5547 6.7952C10.7721 7.28465 10.8828 7.80555 10.8828 8.34149C10.8828 9.36551 10.4795 10.3294 9.74805 11.054Z" fill="#FF4D4F"/>
</svg>
