<svg width="14" height="14" viewBox="0 0 14 14" fill="none" xmlns="http://www.w3.org/2000/svg">
<path d="M12.6191 3.87687C12.4359 3.45254 12.1716 3.06802 11.8412 2.74483C11.5105 2.42068 11.1207 2.16308 10.6928 1.98604C10.2491 1.80174 9.77321 1.7074 9.29277 1.70851C8.61875 1.70851 7.96113 1.89308 7.38965 2.24171C7.25293 2.32511 7.12305 2.41671 7 2.51651C6.87695 2.41671 6.74707 2.32511 6.61035 2.24171C6.03887 1.89308 5.38125 1.70851 4.70723 1.70851C4.22187 1.70851 3.75156 1.80147 3.30723 1.98604C2.87793 2.16378 2.49102 2.41944 2.15879 2.74483C1.82793 3.06766 1.56362 3.45227 1.38086 3.87687C1.19082 4.31847 1.09375 4.78741 1.09375 5.27003C1.09375 5.7253 1.18672 6.19972 1.37129 6.68233C1.52578 7.08565 1.74727 7.50401 2.03027 7.92647C2.47871 8.59503 3.09531 9.2923 3.86094 9.99913C5.12969 11.1708 6.38613 11.9802 6.43945 12.013L6.76348 12.2208C6.90703 12.3124 7.0916 12.3124 7.23516 12.2208L7.55918 12.013C7.6125 11.9788 8.86758 11.1708 10.1377 9.99913C10.9033 9.2923 11.5199 8.59503 11.9684 7.92647C12.2514 7.50401 12.4742 7.08565 12.6273 6.68233C12.8119 6.19972 12.9049 5.7253 12.9049 5.27003C12.9062 4.78741 12.8092 4.31847 12.6191 3.87687ZM7 11.1394C7 11.1394 2.13281 8.02081 2.13281 5.27003C2.13281 3.87687 3.28535 2.74757 4.70723 2.74757C5.70664 2.74757 6.57344 3.30538 7 4.12022C7.42656 3.30538 8.29336 2.74757 9.29277 2.74757C10.7146 2.74757 11.8672 3.87687 11.8672 5.27003C11.8672 8.02081 7 11.1394 7 11.1394Z" fill="black" fill-opacity="0.45"/>
</svg>
