<svg width="14" height="14" viewBox="0 0 14 14" fill="none" xmlns="http://www.w3.org/2000/svg">
<path d="M7.83444 5.75597C7.51862 5.75597 7.2739 6.00069 7.2739 6.30284C7.2739 6.60499 7.51862 6.84972 7.83444 6.84972C8.12292 6.84972 8.36765 6.60499 8.36765 6.30284C8.36765 6.00069 8.12292 5.75597 7.83444 5.75597ZM4.00632 5.75597C3.6905 5.75597 3.44577 6.00069 3.44577 6.30284C3.44577 6.60499 3.6905 6.84972 4.00632 6.84972C4.29479 6.84972 4.53952 6.60499 4.53952 6.30284C4.53952 6.00069 4.29479 5.75597 4.00632 5.75597Z" fill="black" fill-opacity="0.45"/>
<path d="M12.2234 4.71643C11.5658 3.81409 10.6471 3.21116 9.63947 2.93909V2.94046C9.40568 2.68069 9.14181 2.44143 8.8465 2.22815C6.60841 0.601197 3.46661 1.09749 1.83283 3.33557C0.516224 5.15393 0.572279 7.59983 1.91486 9.33753L1.92579 11.1504C1.92579 11.1942 1.93263 11.2379 1.9463 11.2789C2.01876 11.51 2.26486 11.6371 2.49454 11.5647L4.2254 11.0192C4.68341 11.1819 5.15646 11.2748 5.62677 11.3008L5.61993 11.3063C6.8381 12.1936 8.43497 12.4602 9.89923 11.9762L11.6369 12.5422C11.6807 12.5559 11.7258 12.5641 11.7723 12.5641C12.0143 12.5641 12.2098 12.3686 12.2098 12.1266V10.2946C13.4143 8.6594 13.4457 6.39944 12.2234 4.71643ZM4.41681 10.0485L4.25275 9.9801L2.89923 10.4039L2.88556 8.98206L2.77618 8.85901C1.61954 7.44807 1.54298 5.41506 2.62579 3.92346C3.94376 2.11604 6.47032 1.71682 8.27228 3.02112C10.0797 4.33499 10.4803 6.85745 9.17462 8.65393C8.0795 10.1565 6.11896 10.7115 4.41681 10.0485ZM11.3211 9.81604L11.2117 9.95276L11.2254 11.3746L9.88556 10.9235L9.7215 10.9918C8.95587 11.2762 8.13966 11.2994 7.38361 11.0875L7.38087 11.0862C8.39122 10.7758 9.30724 10.1469 9.96759 9.24182C11.0121 7.80217 11.1817 5.99338 10.5746 4.4512L10.5828 4.45667C10.8973 4.68225 11.1858 4.96389 11.4305 5.30432C12.4231 6.66604 12.367 8.51995 11.3211 9.81604Z" fill="black" fill-opacity="0.45"/>
<path d="M5.92038 5.75597C5.60456 5.75597 5.35983 6.00069 5.35983 6.30284C5.35983 6.60499 5.60456 6.84972 5.92038 6.84972C6.20886 6.84972 6.45358 6.60499 6.45358 6.30284C6.45358 6.00069 6.20886 5.75597 5.92038 5.75597Z" fill="black" fill-opacity="0.45"/>
</svg>
