<svg width="16" height="16" viewBox="0 0 16 16" fill="none" xmlns="http://www.w3.org/2000/svg">
<path d="M2.66699 8.2085C2.66699 8.3234 2.68962 8.43718 2.7336 8.54334C2.77757 8.6495 2.84202 8.74596 2.92327 8.82721C3.00453 8.90847 3.10098 8.97292 3.20714 9.01689C3.3133 9.06086 3.42709 9.0835 3.54199 9.0835C3.6569 9.0835 3.77068 9.06086 3.87684 9.01689C3.983 8.97292 4.07946 8.90847 4.16071 8.82721C4.24196 8.74596 4.30641 8.6495 4.35039 8.54334C4.39436 8.43718 4.41699 8.3234 4.41699 8.2085C4.41699 8.09359 4.39436 7.97981 4.35039 7.87365C4.30641 7.76749 4.24196 7.67103 4.16071 7.58978C4.07946 7.50853 3.983 7.44407 3.87684 7.4001C3.77068 7.35613 3.6569 7.3335 3.54199 7.3335C3.42709 7.3335 3.3133 7.35613 3.20714 7.4001C3.10098 7.44407 3.00453 7.50853 2.92327 7.58978C2.84202 7.67103 2.77757 7.76749 2.7336 7.87365C2.68962 7.97981 2.66699 8.09359 2.66699 8.2085ZM7.04199 8.2085C7.04199 8.44056 7.13418 8.66312 7.29827 8.82721C7.46237 8.99131 7.68493 9.0835 7.91699 9.0835C8.14906 9.0835 8.37162 8.99131 8.53571 8.82721C8.6998 8.66312 8.79199 8.44056 8.79199 8.2085C8.79199 7.97643 8.6998 7.75387 8.53571 7.58978C8.37162 7.42568 8.14906 7.3335 7.91699 7.3335C7.68493 7.3335 7.46237 7.42568 7.29827 7.58978C7.13418 7.75387 7.04199 7.97643 7.04199 8.2085ZM11.417 8.2085C11.417 8.44056 11.5092 8.66312 11.6733 8.82721C11.8374 8.99131 12.0599 9.0835 12.292 9.0835C12.5241 9.0835 12.7466 8.99131 12.9107 8.82721C13.0748 8.66312 13.167 8.44056 13.167 8.2085C13.167 7.97643 13.0748 7.75387 12.9107 7.58978C12.7466 7.42568 12.5241 7.3335 12.292 7.3335C12.0599 7.3335 11.8374 7.42568 11.6733 7.58978C11.5092 7.75387 11.417 7.97643 11.417 8.2085Z" fill="black" fill-opacity="0.88"/>
</svg>
