<svg width="16" height="16" viewBox="0 0 16 16" fill="none" xmlns="http://www.w3.org/2000/svg">
<path d="M8.96953 10.3972C8.94604 10.3739 8.91431 10.3609 8.88125 10.3609C8.84819 10.3609 8.81646 10.3739 8.79297 10.3972L6.97734 12.2128C6.13672 13.0534 4.71797 13.1425 3.78984 12.2128C2.86016 11.2831 2.94922 9.86592 3.78984 9.02529L5.60547 7.20967C5.65391 7.16123 5.65391 7.08154 5.60547 7.03311L4.98359 6.41123C4.9601 6.38797 4.92837 6.37492 4.89531 6.37492C4.86225 6.37492 4.83052 6.38797 4.80703 6.41123L2.99141 8.22686C1.66953 9.54873 1.66953 11.6878 2.99141 13.0081C4.31328 14.3284 6.45234 14.33 7.77266 13.0081L9.58828 11.1925C9.63672 11.144 9.63672 11.0644 9.58828 11.0159L8.96953 10.3972ZM13.0102 2.99092C11.6883 1.66904 9.54922 1.66904 8.22891 2.99092L6.41172 4.80654C6.38846 4.83004 6.37541 4.86176 6.37541 4.89482C6.37541 4.92789 6.38846 4.95961 6.41172 4.98311L7.03203 5.60342C7.08047 5.65186 7.16016 5.65186 7.20859 5.60342L9.02422 3.78779C9.86484 2.94717 11.2836 2.85811 12.2117 3.78779C13.1414 4.71748 13.0523 6.13467 12.2117 6.97529L10.3961 8.79092C10.3728 8.81441 10.3598 8.84614 10.3598 8.8792C10.3598 8.91226 10.3728 8.94399 10.3961 8.96748L11.018 9.58936C11.0664 9.63779 11.1461 9.63779 11.1945 9.58936L13.0102 7.77373C14.3305 6.45186 14.3305 4.31279 13.0102 2.99092ZM9.53359 5.81748C9.5101 5.79422 9.47837 5.78117 9.44531 5.78117C9.41225 5.78117 9.38052 5.79422 9.35703 5.81748L5.81797 9.35498C5.79471 9.37848 5.78166 9.4102 5.78166 9.44326C5.78166 9.47632 5.79471 9.50805 5.81797 9.53154L6.43672 10.1503C6.48516 10.1987 6.56484 10.1987 6.61328 10.1503L10.1508 6.61279C10.1992 6.56436 10.1992 6.48467 10.1508 6.43623L9.53359 5.81748Z" fill="black" fill-opacity="0.88"/>
</svg>
