<svg width="16" height="16" viewBox="0 0 16 16" fill="none" xmlns="http://www.w3.org/2000/svg">
<path d="M13.5618 8.52287L8.37587 2.54631C8.329 2.49223 8.27104 2.44886 8.20594 2.41913C8.14083 2.38941 8.0701 2.37402 7.99853 2.37402C7.92696 2.37402 7.85623 2.38941 7.79112 2.41913C7.72602 2.44886 7.66807 2.49223 7.62119 2.54631L2.43681 8.52287C2.42115 8.54089 2.41099 8.56302 2.40755 8.58665C2.40411 8.61027 2.40753 8.63439 2.41741 8.65612C2.42729 8.67786 2.44321 8.69629 2.46327 8.70923C2.48333 8.72218 2.50669 8.72908 2.53056 8.72912H3.79619C3.86806 8.72912 3.93681 8.69787 3.98525 8.64318L7.40556 4.701V13.4994C7.40556 13.5682 7.46181 13.6244 7.53056 13.6244H8.46806C8.53681 13.6244 8.59306 13.5682 8.59306 13.4994V4.701L12.0134 8.64318C12.0603 8.69787 12.129 8.72912 12.2024 8.72912H13.4681C13.5743 8.72912 13.6321 8.60412 13.5618 8.52287Z" fill="white"/>
</svg>
