<svg width="40" height="40" viewBox="0 0 40 40" fill="none" xmlns="http://www.w3.org/2000/svg">
<g clip-path="url(#clip0_19468_5734)">
<path d="M3.96172 4.16142C4.97708 3.14606 6.62331 3.14606 7.63867 4.16142L21.1579 17.6806C22.3235 18.8462 22.3303 20.734 21.1731 21.9079L7.65185 35.6251C6.64382 36.6477 4.99763 36.6596 3.97499 35.6516C2.95235 34.6435 2.94051 32.9973 3.94854 31.9747L15.1 20.6616C15.5629 20.192 15.5602 19.4369 15.094 18.9707L3.96172 7.83838C2.96247 6.83913 2.94661 5.22889 3.91413 4.21025L3.96172 4.16142ZM32.0586 35.6835C33.0515 36.7208 34.6973 36.7569 35.7347 35.764C36.772 34.7711 36.8081 33.1253 35.8152 32.0879L26.7364 22.6026C25.7435 21.5652 24.0976 21.5292 23.0603 22.5221C22.0229 23.515 21.9869 25.1608 22.9798 26.1982L32.0586 35.6835Z" fill="url(#paint0_linear_19468_5734)"/>
<mask id="mask0_19468_5734" style="mask-type:luminance" maskUnits="userSpaceOnUse" x="3" y="3" width="34" height="34">
<path d="M3.96172 4.16142C4.97708 3.14606 6.62331 3.14606 7.63867 4.16142L21.1579 17.6806C22.3235 18.8462 22.3303 20.734 21.1731 21.9079L7.65185 35.6251C6.64382 36.6477 4.99763 36.6596 3.97499 35.6516C2.95235 34.6435 2.94051 32.9973 3.94854 31.9747L15.1 20.6616C15.5629 20.192 15.5602 19.4369 15.094 18.9707L3.96172 7.83838C2.96247 6.83913 2.94661 5.22889 3.91413 4.21025L3.96172 4.16142ZM32.0586 35.6835C33.0515 36.7208 34.6973 36.7569 35.7347 35.764C36.772 34.7711 36.8081 33.1253 35.8152 32.0879L26.7364 22.6026C25.7435 21.5652 24.0976 21.5292 23.0603 22.5221C22.0229 23.515 21.9869 25.1608 22.9798 26.1982L32.0586 35.6835Z" fill="white"/>
</mask>
<g mask="url(#mask0_19468_5734)">
<path fill-rule="evenodd" clip-rule="evenodd" d="M15.4 19.25C17.3667 21.7167 18 23.9333 17.3 25.9C15.9 27.5333 14.0333 29.4167 11.7 31.55L8.25 27.6L15.4 19.25Z" fill="url(#paint1_linear_19468_5734)"/>
</g>
<path d="M32.0584 4.20261C33.0512 3.16526 34.6971 3.12922 35.7344 4.12211C36.7718 5.115 36.8078 6.76083 35.8149 7.79818L26.7361 17.2835C25.7432 18.3209 24.0974 18.3569 23.06 17.364C22.0227 16.3711 21.9866 14.7253 22.9795 13.6879L32.0584 4.20261Z" fill="url(#paint2_linear_19468_5734)"/>
</g>
<defs>
<linearGradient id="paint0_linear_19468_5734" x1="1670.04" y1="3.3999" x2="1670.04" y2="3311.98" gradientUnits="userSpaceOnUse">
<stop stop-color="#3DFFFB"/>
<stop offset="1" stop-color="#3B86FF"/>
</linearGradient>
<linearGradient id="paint1_linear_19468_5734" x1="742.568" y1="233.445" x2="136.385" y2="876.904" gradientUnits="userSpaceOnUse">
<stop stop-color="#024FC9"/>
<stop offset="1" stop-color="#1383FF" stop-opacity="0"/>
</linearGradient>
<linearGradient id="paint2_linear_19468_5734" x1="1301.95" y1="70.6718" x2="171.194" y2="1287.75" gradientUnits="userSpaceOnUse">
<stop stop-color="#FF8BFF"/>
<stop offset="1" stop-color="#B54DFF"/>
</linearGradient>
<clipPath id="clip0_19468_5734">
<rect width="40" height="40" fill="white"/>
</clipPath>
</defs>
</svg>
